<svg width="24" height="25" viewBox="0 0 24 25" fill="none" xmlns="http://www.w3.org/2000/svg">
<rect y="0.902344" width="24" height="24" rx="4" fill="#041D5B"/>
<path d="M18 8.03876C17.5584 8.23076 17.0844 8.36276 16.5864 8.42036C17.0952 8.12036 17.484 7.64516 17.6688 7.07996C17.184 7.36252 16.6549 7.5613 16.104 7.66796C15.8723 7.42504 15.5935 7.23188 15.2846 7.10026C14.9758 6.96863 14.6433 6.90129 14.3076 6.90236C12.948 6.90236 11.8464 7.98836 11.8464 9.32636C11.8464 9.51596 11.868 9.70076 11.91 9.87836C10.9348 9.83205 9.97994 9.58297 9.10638 9.14701C8.23281 8.71106 7.45971 8.09779 6.8364 7.34636C6.61748 7.71488 6.50221 8.13571 6.5028 8.56436C6.5028 9.40436 6.9384 10.1484 7.5984 10.5816C7.20773 10.5693 6.82543 10.4653 6.4824 10.278V10.308C6.48611 10.8713 6.68496 11.416 7.0451 11.8492C7.40524 12.2824 7.9044 12.5774 8.4576 12.684C8.09443 12.78 7.71443 12.7939 7.3452 12.7248C7.50615 13.2094 7.81401 13.6319 8.22603 13.9336C8.63805 14.2353 9.13378 14.4012 9.6444 14.4084C8.76836 15.0834 7.69277 15.4481 6.5868 15.4452C6.3888 15.4452 6.1932 15.4332 6 15.4116C7.12857 16.1259 8.43716 16.5042 9.7728 16.5024C14.3016 16.5024 16.7772 12.8088 16.7772 9.60476L16.7688 9.29036C17.2516 8.95109 17.6687 8.52702 18 8.03876Z" fill="white"/>
</svg>
