<svg width="24" height="25" viewBox="0 0 24 25" fill="none" xmlns="http://www.w3.org/2000/svg">
<rect x="0.6" y="1.50234" width="22.8" height="22.8" rx="3.4" stroke="#777777" stroke-width="1.2"/>
<path d="M11.9761 5.90234C10.3477 5.9134 8.7737 6.48798 7.52344 7.5278C6.27318 8.56762 5.42431 10.0081 5.12206 11.6027C4.81981 13.1974 5.08295 14.8471 5.86647 16.2698C6.64999 17.6925 7.9052 18.7996 9.41738 19.4018C9.31575 18.739 9.31575 18.0647 9.41738 17.4019L10.2452 13.902C10.1142 13.5851 10.0493 13.2448 10.0545 12.9021C10.0545 11.9321 10.6215 11.2021 11.3239 11.2021C11.4511 11.2002 11.5773 11.2258 11.6937 11.277C11.8101 11.3282 11.9141 11.4039 11.9984 11.4988C12.0827 11.5938 12.1455 11.7058 12.1823 11.8272C12.2192 11.9486 12.2293 12.0765 12.2119 12.2021C12.2119 12.8021 11.8306 13.702 11.6299 14.532C11.5867 14.6868 11.5816 14.8497 11.6149 15.0068C11.6483 15.164 11.7192 15.3109 11.8215 15.435C11.9239 15.5591 12.0548 15.6568 12.2031 15.7198C12.3514 15.7828 12.5127 15.8093 12.6735 15.797C13.9177 15.797 14.881 14.482 14.881 12.5921C14.8935 12.208 14.8255 11.8256 14.6815 11.4692C14.5374 11.1128 14.3203 10.7902 14.0442 10.5221C13.768 10.2539 13.4388 10.0461 13.0775 9.9118C12.7163 9.77752 12.3309 9.71976 11.946 9.7422C11.535 9.72461 11.1248 9.7903 10.74 9.9353C10.3553 10.0803 10.0041 10.3016 9.70767 10.5858C9.41124 10.87 9.17576 11.2111 9.01548 11.5887C8.8552 11.9662 8.77346 12.3722 8.77519 12.7821C8.76961 13.3531 8.94521 13.9113 9.2769 14.377C9.30102 14.4037 9.3182 14.4359 9.32695 14.4708C9.33569 14.5057 9.33574 14.5421 9.32707 14.577C9.27188 14.797 9.15147 15.277 9.13141 15.372C9.11134 15.467 9.02605 15.527 8.8956 15.467C8.01761 15.057 7.47075 13.782 7.47075 12.7521C7.47075 10.5472 9.08124 8.51724 12.1116 8.51724C14.5448 8.51724 16.4413 10.2472 16.4413 12.5621C16.4413 14.972 14.9362 16.9119 12.7939 16.9119C12.4798 16.9228 12.168 16.8553 11.8867 16.7156C11.6055 16.5759 11.3637 16.3684 11.1834 16.112L10.7469 17.7769C10.5377 18.4239 10.2442 19.0408 9.87393 19.6118C10.5561 19.8128 11.2648 19.9105 11.9761 19.9018C13.8389 19.9018 15.6255 19.1643 16.9427 17.8516C18.26 16.5389 19 14.7585 19 12.9021C19 11.0456 18.26 9.26522 16.9427 7.95252C15.6255 6.63981 13.8389 5.90234 11.9761 5.90234Z" fill="#777777"/>
</svg>
