<svg width="25" height="24" viewBox="0 0 25 24" fill="none" xmlns="http://www.w3.org/2000/svg">
<path d="M22.2358 20.689L16.5718 15.025C17.9329 13.391 18.6116 11.2951 18.4668 9.1734C18.322 7.0517 17.3647 5.06752 15.7942 3.63361C14.2237 2.19971 12.1609 1.42648 10.0348 1.47479C7.90868 1.5231 5.88307 2.38922 4.37931 3.89298C2.87555 5.39674 2.00943 7.42236 1.96112 9.54844C1.91281 11.6745 2.68604 13.7374 4.11994 15.3079C5.55385 16.8784 7.53803 17.8356 9.65973 17.9805C11.7814 18.1253 13.8773 17.4466 15.5113 16.0855L21.1753 21.7495L22.2358 20.689ZM3.4858 9.74948C3.4858 8.41445 3.88169 7.10941 4.62338 5.99938C5.36508 4.88935 6.41929 4.02418 7.65269 3.51329C8.88609 3.0024 10.2433 2.86873 11.5527 3.12918C12.862 3.38963 14.0648 4.0325 15.0088 4.97651C15.9528 5.92051 16.5957 7.12324 16.8561 8.43262C17.1166 9.74199 16.9829 11.0992 16.472 12.3326C15.9611 13.566 15.0959 14.6202 13.9859 15.3619C12.8759 16.1036 11.5708 16.4995 10.2358 16.4995C8.4462 16.4975 6.73047 15.7857 5.46503 14.5203C4.19959 13.2548 3.48779 11.5391 3.4858 9.74948Z" fill="#555555" fill-opacity="0.57"/>
</svg>
