<svg width="19" height="20" viewBox="0 0 19 20" fill="none" xmlns="http://www.w3.org/2000/svg">
<path d="M5.5 0C6.05228 0 6.5 0.447715 6.5 1V2.5H4.5V1C4.5 0.447715 4.94772 0 5.5 0Z" fill="#777777"/>
<path d="M12.5 3H6.5V4C6.5 4.55228 6.05228 5 5.5 5C4.94772 5 4.5 4.55228 4.5 4V3H3.5C1.84315 3 0.5 4.34315 0.5 6V6.5H18.5V6C18.5 4.34315 17.1569 3 15.5 3H14.5V4C14.5 4.55228 14.0523 5 13.5 5C12.9477 5 12.5 4.55228 12.5 4V3Z" fill="#777777"/>
<path d="M0.5 8.5V17C0.5 18.6569 1.84315 20 3.5 20H15.5C17.1569 20 18.5 18.6569 18.5 17V8.5H0.5Z" fill="#777777"/>
<path d="M14.5 1C14.5 0.447715 14.0523 0 13.5 0C12.9477 0 12.5 0.447715 12.5 1V2.5H14.5V1Z" fill="#777777"/>
</svg>
