<svg width="24" height="25" viewBox="0 0 24 25" fill="none" xmlns="http://www.w3.org/2000/svg">
<rect x="0.6" y="1.50234" width="22.8" height="22.8" rx="3.4" stroke="#777777" stroke-width="1.2"/>
<path d="M18.9549 10.0297C18.9471 9.44087 18.8368 8.85791 18.6292 8.30688C18.4491 7.8421 18.174 7.41999 17.8215 7.06753C17.4691 6.71506 17.047 6.44 16.5822 6.25991C16.0382 6.05572 15.4636 5.94531 14.8827 5.93338C14.1348 5.89995 13.8977 5.89062 11.9992 5.89062C10.1007 5.89062 9.8574 5.89063 9.11495 5.93338C8.53433 5.9454 7.95996 6.0558 7.41626 6.25991C6.9514 6.43987 6.52923 6.71489 6.17675 7.06737C5.82427 7.41985 5.54925 7.84203 5.36928 8.30688C5.16468 8.85041 5.05452 9.42492 5.04354 10.0056C5.01011 10.7542 5 10.9914 5 12.8898C5 14.7883 5 15.0309 5.04354 15.7741C5.0552 16.3556 5.16482 16.9294 5.36928 17.4744C5.54955 17.9391 5.82477 18.3611 6.17737 18.7134C6.52997 19.0657 6.95218 19.3407 7.41704 19.5206C7.95924 19.733 8.53372 19.8513 9.11573 19.8704C9.86439 19.9038 10.1015 19.9139 12 19.9139C13.8985 19.9139 14.1418 19.9139 14.8843 19.8704C15.4651 19.859 16.0398 19.7488 16.5837 19.5447C17.0484 19.3644 17.4704 19.0892 17.8228 18.7368C18.1753 18.3844 18.4504 17.9624 18.6307 17.4977C18.8352 16.9535 18.9448 16.3797 18.9565 15.7974C18.9899 15.0496 19 14.8124 19 12.9132C18.9984 11.0147 18.9984 10.7737 18.9549 10.0297ZM11.9946 16.48C10.009 16.48 8.40049 14.8715 8.40049 12.886C8.40049 10.9004 10.009 9.29189 11.9946 9.29189C12.9478 9.29189 13.8619 9.67055 14.5359 10.3446C15.21 11.0186 15.5886 11.9328 15.5886 12.886C15.5886 13.8392 15.21 14.7533 14.5359 15.4274C13.8619 16.1014 12.9478 16.48 11.9946 16.48ZM15.7317 9.99702C15.6216 9.99712 15.5126 9.97552 15.4108 9.93344C15.3091 9.89136 15.2167 9.82963 15.1388 9.75178C15.061 9.67394 14.9993 9.58151 14.9572 9.47979C14.9151 9.37806 14.8935 9.26904 14.8936 9.15895C14.8936 9.04894 14.9153 8.94002 14.9574 8.83838C14.9995 8.73675 15.0612 8.6444 15.139 8.56662C15.2167 8.48883 15.3091 8.42713 15.4107 8.38503C15.5124 8.34293 15.6213 8.32127 15.7313 8.32127C15.8413 8.32127 15.9502 8.34293 16.0519 8.38503C16.1535 8.42713 16.2458 8.48883 16.3236 8.56662C16.4014 8.6444 16.4631 8.73675 16.5052 8.83838C16.5473 8.94002 16.569 9.04894 16.569 9.15895C16.569 9.6223 16.1942 9.99702 15.7317 9.99702Z" fill="#777777"/>
<path d="M11.9948 15.22C13.2842 15.22 14.3294 14.1748 14.3294 12.8854C14.3294 11.596 13.2842 10.5508 11.9948 10.5508C10.7054 10.5508 9.66016 11.596 9.66016 12.8854C9.66016 14.1748 10.7054 15.22 11.9948 15.22Z" fill="#777777"/>
</svg>
