<svg width="18" height="22" viewBox="0 0 18 22" fill="none" xmlns="http://www.w3.org/2000/svg">
<path d="M6.85685 9.01351C6.85685 7.82959 7.81777 6.86719 8.99989 6.86719C10.182 6.86719 11.1426 7.82959 11.1426 9.01351C11.1426 10.1974 10.182 11.1598 8.99989 11.1598C7.81777 11.1598 6.85685 10.1974 6.85685 9.01351Z" fill="#041D5B"/>
<path d="M9.00023 12.0195C11.091 12.0195 12.8574 13.0024 12.8574 14.1655C12.8574 17.6542 11.559 20.3653 11.018 20.9078C10.6649 21.2608 9.93035 21.4625 9.00023 21.4625C8.07011 21.4625 7.33558 21.2608 6.9825 20.9078C6.44181 20.3653 5.14304 17.6542 5.14304 14.1655C5.14304 13.0024 6.90981 12.0195 9.00023 12.0195Z" fill="black"/>
<path d="M9 0C13.9628 0 18 4.04339 18 9.01381C18 11.8906 16.614 14.6128 14.2913 16.298C14.1016 16.4353 13.8316 16.3958 13.6928 16.2016C13.5533 16.0092 13.5969 15.7416 13.789 15.6026C15.8888 14.0785 17.1429 11.6157 17.1429 9.01381C17.1429 4.51731 13.4896 0.858392 9 0.858392C4.51038 0.858392 0.857079 4.51731 0.857079 9.01381C0.857079 11.6157 2.11119 14.0785 4.21131 15.6026C4.40308 15.7416 4.44669 16.0092 4.30719 16.2016C4.22412 16.3185 4.09188 16.3795 3.96 16.3795C3.87242 16.3795 3.78415 16.3528 3.70904 16.2977C1.386 14.6128 0 11.8906 0 9.01381C0 4.04339 4.03719 0 9 0Z" fill="#041D5B"/>
<path d="M8.99994 3.43555C12.0721 3.43555 14.5713 5.93861 14.5713 9.01544C14.5713 10.2337 14.1857 11.3864 13.4553 12.3488C13.3113 12.5378 13.043 12.5738 12.8547 12.4313C12.6661 12.2878 12.629 12.0174 12.7723 11.8284C13.3885 11.0172 13.7142 10.0437 13.7142 9.01544C13.7142 6.41253 11.5989 4.29394 8.99994 4.29394C6.40102 4.29394 4.28567 6.41253 4.28567 9.01544C4.28567 10.0437 4.61141 11.0172 5.22756 11.8284C5.37087 12.0174 5.33417 12.2878 5.14552 12.4313C5.06729 12.4896 4.9766 12.518 4.88556 12.518C4.75713 12.518 4.62871 12.4594 4.5446 12.3488C3.81421 11.3864 3.4286 10.2337 3.4286 9.01544C3.4286 5.93861 5.92783 3.43555 8.99994 3.43555Z" fill="#041D5B"/>
</svg>
