<svg width="11" height="9" viewBox="0 0 11 9" fill="none" xmlns="http://www.w3.org/2000/svg">
<path d="M11 1.0654C10.5952 1.24609 10.1603 1.36822 9.7038 1.42316C10.1698 1.14197 10.5276 0.696697 10.6961 0.16616C10.2531 0.430817 9.76843 0.617284 9.26303 0.717505C8.85135 0.275953 8.26487 0 7.61574 0C6.36939 0 5.35889 1.01729 5.35889 2.272C5.35889 2.4501 5.37887 2.62348 5.41733 2.78982C3.54174 2.69503 1.87885 1.79052 0.765746 0.415898C0.571527 0.751464 0.460238 1.1418 0.460238 1.55813C0.460238 2.3464 0.858688 3.0418 1.4642 3.44927C1.10582 3.43797 0.755326 3.34052 0.441977 3.16505C0.441848 3.17457 0.441848 3.18408 0.441848 3.19365C0.441848 4.29447 1.21975 5.21279 2.25212 5.42152C1.9198 5.51251 1.57121 5.52583 1.23299 5.46045C1.52015 6.36311 2.35361 7.01996 3.34112 7.03835C2.56876 7.6477 1.59564 8.01095 0.538355 8.01095C0.356168 8.01095 0.176559 8.00018 0 7.9792C0.998723 8.62386 2.18496 9 3.45941 9C7.6105 9 9.88041 5.53789 9.88041 2.53549C9.88041 2.43695 9.87826 2.33896 9.87388 2.24154C10.3157 1.91999 10.697 1.52171 11 1.0654Z" fill="#999999"/>
</svg>
