<svg width="11" height="11" viewBox="0 0 11 11" fill="none" xmlns="http://www.w3.org/2000/svg">
<path d="M10.3317 3.06441C10.3259 2.62847 10.2443 2.19687 10.0906 1.78891C9.95722 1.4448 9.75358 1.13229 9.49263 0.871336C9.23167 0.610385 8.91916 0.406737 8.57505 0.273402C8.17233 0.122229 7.74688 0.0404873 7.31682 0.0316571C6.76311 0.00690704 6.58756 0 5.18198 0C3.77641 0 3.59625 3.85959e-08 3.04657 0.0316571C2.6167 0.0405522 2.19145 0.122293 1.78891 0.273402C1.44475 0.406644 1.13219 0.61026 0.871223 0.871223C0.61026 1.13219 0.406644 1.44475 0.273402 1.78891C0.121926 2.19132 0.0403618 2.61667 0.0322327 3.04657C0.00748258 3.60085 0 3.77641 0 5.18198C0 6.58756 -4.28843e-09 6.76714 0.0322327 7.3174C0.0408664 7.74793 0.122024 8.17272 0.273402 8.5762C0.406867 8.92026 0.610635 9.2327 0.871685 9.49355C1.13274 9.7544 1.44533 9.95793 1.78949 10.0911C2.19092 10.2484 2.61624 10.336 3.04714 10.3501C3.60143 10.3749 3.77698 10.3824 5.18256 10.3824C6.58813 10.3824 6.76829 10.3824 7.31797 10.3501C7.74802 10.3417 8.1735 10.2601 8.5762 10.109C8.92022 9.97549 9.23266 9.77179 9.49359 9.51086C9.75452 9.24992 9.95822 8.93749 10.0917 8.59347C10.2431 8.19056 10.3242 7.76578 10.3329 7.33466C10.3576 6.78095 10.3651 6.6054 10.3651 5.19925C10.364 3.79367 10.364 3.61524 10.3317 3.06441ZM5.17853 7.84003C3.70849 7.84003 2.5176 6.64914 2.5176 5.1791C2.5176 3.70906 3.70849 2.51818 5.17853 2.51818C5.88425 2.51818 6.56106 2.79853 7.06008 3.29755C7.5591 3.79657 7.83945 4.47338 7.83945 5.1791C7.83945 5.88482 7.5591 6.56164 7.06008 7.06066C6.56106 7.55968 5.88425 7.84003 5.17853 7.84003ZM7.94536 3.04023C7.86385 3.04031 7.78314 3.02431 7.70782 2.99316C7.63251 2.962 7.56408 2.9163 7.50644 2.85867C7.44881 2.80104 7.40311 2.73261 7.37196 2.65729C7.3408 2.58198 7.3248 2.50126 7.32488 2.41975C7.32488 2.33831 7.34092 2.25766 7.37209 2.18242C7.40326 2.10717 7.44894 2.0388 7.50653 1.98121C7.56412 1.92362 7.63249 1.87794 7.70773 1.84677C7.78298 1.8156 7.86363 1.79956 7.94507 1.79956C8.02652 1.79956 8.10716 1.8156 8.18241 1.84677C8.25765 1.87794 8.32602 1.92362 8.38361 1.98121C8.4412 2.0388 8.48689 2.10717 8.51805 2.18242C8.54922 2.25766 8.56526 2.33831 8.56526 2.41975C8.56526 2.7628 8.28783 3.04023 7.94536 3.04023Z" fill="#999999"/>
</svg>
